# xmcd
#
# Track frame offsets: 
#        150
#        17217
#        42725
#        62988
#        88026
#        118713
#        132430
#        145108
#        161938
#        199326
#        216694
#        230018
#        257888
#        280924
#        300845
#
# Disc length: 4271 seconds
#
# Revision: 4
# Processed by: cddbd v1.5.2PL0 Copyright (c) Steve Scherf et al.
# Submitted via: ExactAudioCopyFreeDBPlugin 1.0
#
DISCID=f110ad0f
DTITLE=Various Artist - Night Rhythms 2 - Broadcasting the Blues Vol.
DTITLE=2
DYEAR=1900
DGENRE=
TTITLE0=Sam Mitchell - Refugee Blues
TTITLE1=Claudia Bettinaglio - Invitation to the Blues
TTITLE2=Mick Clarke - New Star Over Texas
TTITLE3=Bleu Jackson - I Believe in Your Love
TTITLE4=The Big Five-O - Frankie and Johny
TTITLE5=Brenda Burns - Broken Hearts Row
TTITLE6=Nuno Mindelis - Castles made of Sand
TTITLE7=Chris Smith - 'Till I met You
TTITLE8=Billy C. Farlow and Bleu Jackson - Sunny Land
TTITLE9=Buick 6 - Corisande
TTITLE10=Claudia Bettinaglio - Saving All My Love For You
TTITLE11=Big Mike Griffin - You'll Know
TTITLE12=Blue by Nature - Love Me All Night
TTITLE13=Reddog - Honest Man
TTITLE14=Mick Clarke - Cry to me
EXTD=
EXTT0=
EXTT1=
EXTT2=
EXTT3=
EXTT4=
EXTT5=
EXTT6=
EXTT7=
EXTT8=
EXTT9=
EXTT10=
EXTT11=
EXTT12=
EXTT13=
EXTT14=
PLAYORDER=
